<?xml version="1.0" standalone="no"?><!DOCTYPE svg PUBLIC "-//W3C//DTD SVG 1.1//EN" "http://www.w3.org/Graphics/SVG/1.1/DTD/svg11.dtd"><svg t="1635427612302" class="icon" viewBox="0 0 1024 1024" version="1.1" xmlns="http://www.w3.org/2000/svg" p-id="6525" xmlns:xlink="http://www.w3.org/1999/xlink" width="200" height="200"><defs><style type="text/css"></style></defs><path d="M110.3872 0h803.2256c18.5344 0 33.5872 15.0528 33.5872 33.5872V110.592a33.5872 33.5872 0 0 1-33.5872 33.5872H110.3872A33.5872 33.5872 0 0 1 76.8 110.592V33.5872C76.8 15.0528 91.8528 0 110.3872 0zM733.184 100.9664a28.672 28.672 0 0 0 28.5184-28.8768 28.672 28.672 0 0 0-28.5184-28.8256 28.672 28.672 0 0 0-28.5696 28.8256c0 15.9744 12.8 28.8768 28.5696 28.8768z m114.176 0a28.672 28.672 0 0 0 28.5184-28.8768 28.672 28.672 0 0 0-28.5696-28.8256 28.672 28.672 0 0 0-28.5184 28.8256c0 15.9744 12.8 28.8768 28.5184 28.8768zM148.48 966.2976h741.376a28.8256 28.8256 0 0 1 0 57.7024H148.48a28.8256 28.8256 0 1 1 0-57.7024zM110.336 173.056h803.2256c18.5344 0 33.5872 15.0528 33.5872 33.5872v697.2416a33.5872 33.5872 0 0 1-33.5872 33.5872H110.3872A33.5872 33.5872 0 0 1 76.8 903.8848V206.6432c0-18.5344 15.0528-33.5872 33.5872-33.5872zM512 836.5056c153.6512 0 278.2208-125.952 278.2208-281.2416 0-155.3408-124.5696-281.2416-278.2208-281.2416-153.6512 0-278.2208 125.952-278.2208 281.2416 0 155.3408 124.5696 281.2416 278.2208 281.2416z m7.168-115.3536c-86.7328 0-156.9792-71.0656-156.9792-158.72 0-87.552 70.2464-158.6176 156.928-158.6176 86.6816 0 156.9792 71.0656 156.9792 158.6688 0 87.6032-70.2976 158.6688-156.9792 158.6688z" fill="#414F58" p-id="6526"></path></svg>