<?xml version="1.0" standalone="no"?><!DOCTYPE svg PUBLIC "-//W3C//DTD SVG 1.1//EN" "http://www.w3.org/Graphics/SVG/1.1/DTD/svg11.dtd"><svg t="1635427567258" class="icon" viewBox="0 0 1024 1024" version="1.1" xmlns="http://www.w3.org/2000/svg" p-id="2421" xmlns:xlink="http://www.w3.org/1999/xlink" width="200" height="200"><defs><style type="text/css"></style></defs><path d="M433.6 700.9c-70.8 0-137.4-27.6-187.5-77.7s-77.7-116.7-77.7-187.5 27.6-137.4 77.7-187.5 116.7-77.7 187.5-77.7 137.4 27.6 187.5 77.7 77.7 116.7 77.7 187.5-27.5 137.3-77.5 187.4c-50.2 50.2-116.8 77.8-187.7 77.8z m0-490.3c-60.1 0-116.7 23.4-159.2 65.9s-65.9 99.1-65.9 159.2 23.4 116.7 65.9 159.2 99.1 65.9 159.2 65.9c60.2 0 116.8-23.5 159.3-66 42.5-42.5 65.8-99 65.8-159.1 0-60.1-23.4-116.7-65.9-159.2s-99-65.9-159.2-65.9z" fill="#17A8FF" p-id="2422"></path><path d="M783.3 805.9c-5.2 0-10.3-2-14.2-6l-177-179.3c-7.8-7.9-7.7-20.5 0.2-28.3 7.9-7.8 20.5-7.7 28.3 0.2l176.9 179.4c7.8 7.9 7.7 20.5-0.2 28.3-3.9 3.8-8.9 5.7-14 5.7z" fill="#17A8FF" p-id="2423"></path></svg>